<mxfile host="app.diagrams.net" modified="2023-09-13T21:11:47.710Z" agent="Mozilla/5.0 (Windows NT 10.0; Win64; x64) AppleWebKit/537.36 (KHTML, like Gecko) Chrome/116.0.0.0 Safari/537.36" etag="nsmHtkttAY4vOPmP0hvB" version="21.7.2" type="device">
  <diagram name="PÃ¡gina-1" id="O8CFx2J9XU56qer0C7IA">
    <mxGraphModel dx="1050" dy="574" grid="1" gridSize="10" guides="1" tooltips="1" connect="1" arrows="1" fold="1" page="1" pageScale="1" pageWidth="827" pageHeight="1169" math="0" shadow="0">
      <root>
        <mxCell id="0" />
        <mxCell id="1" parent="0" />
        <mxCell id="BVIy-EahmFEfsLHSjCyb-1" value="Actor" style="shape=umlActor;verticalLabelPosition=bottom;verticalAlign=top;html=1;outlineConnect=0;" parent="1" vertex="1">
          <mxGeometry x="10" y="260" width="30" height="60" as="geometry" />
        </mxCell>
        <mxCell id="BVIy-EahmFEfsLHSjCyb-2" value="" style="endArrow=classic;html=1;rounded=0;entryX=0;entryY=1;entryDx=0;entryDy=0;" parent="1" target="BVIy-EahmFEfsLHSjCyb-5" edge="1">
          <mxGeometry width="50" height="50" relative="1" as="geometry">
            <mxPoint x="40" y="260" as="sourcePoint" />
            <mxPoint x="230" y="130" as="targetPoint" />
          </mxGeometry>
        </mxCell>
        <mxCell id="BVIy-EahmFEfsLHSjCyb-5" value="&lt;span style=&quot;background-color: rgb(255, 255, 255);&quot;&gt;Pesquisar Filmes&lt;br&gt;&lt;/span&gt;" style="ellipse;whiteSpace=wrap;html=1;" parent="1" vertex="1">
          <mxGeometry x="140" y="40" width="130" height="80" as="geometry" />
        </mxCell>
        <mxCell id="BVIy-EahmFEfsLHSjCyb-6" value="Visualizar Detalhes" style="ellipse;whiteSpace=wrap;html=1;" parent="1" vertex="1">
          <mxGeometry x="350" y="230" width="120" height="90" as="geometry" />
        </mxCell>
        <mxCell id="BVIy-EahmFEfsLHSjCyb-7" value="Dar nota 0 a 100" style="ellipse;whiteSpace=wrap;html=1;" parent="1" vertex="1">
          <mxGeometry x="720" y="80" width="100" height="60" as="geometry" />
        </mxCell>
        <mxCell id="BVIy-EahmFEfsLHSjCyb-12" value="Marcar com Assistido" style="ellipse;whiteSpace=wrap;html=1;" parent="1" vertex="1">
          <mxGeometry x="500" y="140" width="140" height="80" as="geometry" />
        </mxCell>
        <mxCell id="BVIy-EahmFEfsLHSjCyb-14" value="Fazer Review" style="ellipse;whiteSpace=wrap;html=1;" parent="1" vertex="1">
          <mxGeometry x="710" y="150" width="110" height="60" as="geometry" />
        </mxCell>
        <mxCell id="BVIy-EahmFEfsLHSjCyb-37" style="edgeStyle=orthogonalEdgeStyle;rounded=0;orthogonalLoop=1;jettySize=auto;html=1;exitX=0.5;exitY=0;exitDx=0;exitDy=0;" parent="1" edge="1">
          <mxGeometry relative="1" as="geometry">
            <mxPoint x="290" y="505" as="targetPoint" />
            <mxPoint x="290" y="505" as="sourcePoint" />
          </mxGeometry>
        </mxCell>
        <mxCell id="BVIy-EahmFEfsLHSjCyb-22" value="" style="endArrow=classic;html=1;rounded=0;exitX=0.446;exitY=1.005;exitDx=0;exitDy=0;exitPerimeter=0;entryX=0.347;entryY=0.047;entryDx=0;entryDy=0;entryPerimeter=0;" parent="1" source="BVIy-EahmFEfsLHSjCyb-5" target="BVIy-EahmFEfsLHSjCyb-6" edge="1">
          <mxGeometry width="50" height="50" relative="1" as="geometry">
            <mxPoint x="280" y="130" as="sourcePoint" />
            <mxPoint x="290" y="220" as="targetPoint" />
          </mxGeometry>
        </mxCell>
        <mxCell id="BVIy-EahmFEfsLHSjCyb-23" value="" style="endArrow=classic;html=1;rounded=0;entryX=0.447;entryY=1.055;entryDx=0;entryDy=0;entryPerimeter=0;" parent="1" edge="1" target="BVIy-EahmFEfsLHSjCyb-24">
          <mxGeometry width="50" height="50" relative="1" as="geometry">
            <mxPoint x="20" y="250" as="sourcePoint" />
            <mxPoint x="30" y="132.5" as="targetPoint" />
          </mxGeometry>
        </mxCell>
        <mxCell id="BVIy-EahmFEfsLHSjCyb-24" value="dark/bright mode" style="ellipse;whiteSpace=wrap;html=1;" parent="1" vertex="1">
          <mxGeometry x="10" y="40" width="120" height="80" as="geometry" />
        </mxCell>
        <mxCell id="BVIy-EahmFEfsLHSjCyb-25" value="Curtir/Descurtir" style="ellipse;whiteSpace=wrap;html=1;" parent="1" vertex="1">
          <mxGeometry x="710" y="225" width="110" height="60" as="geometry" />
        </mxCell>
        <mxCell id="BVIy-EahmFEfsLHSjCyb-26" value="" style="endArrow=none;dashed=1;html=1;rounded=0;exitX=1;exitY=0.5;exitDx=0;exitDy=0;entryX=-0.009;entryY=0.592;entryDx=0;entryDy=0;entryPerimeter=0;" parent="1" source="BVIy-EahmFEfsLHSjCyb-6" target="BVIy-EahmFEfsLHSjCyb-12" edge="1">
          <mxGeometry width="50" height="50" relative="1" as="geometry">
            <mxPoint x="380" y="270" as="sourcePoint" />
            <mxPoint x="440" y="270" as="targetPoint" />
          </mxGeometry>
        </mxCell>
        <mxCell id="BVIy-EahmFEfsLHSjCyb-31" value="Filtrar Lista" style="ellipse;whiteSpace=wrap;html=1;" parent="1" vertex="1">
          <mxGeometry x="250" y="350" width="120" height="55" as="geometry" />
        </mxCell>
        <mxCell id="BVIy-EahmFEfsLHSjCyb-32" value="Organizar Lista" style="ellipse;whiteSpace=wrap;html=1;" parent="1" vertex="1">
          <mxGeometry x="250" y="430" width="120" height="60" as="geometry" />
        </mxCell>
        <mxCell id="gxYtZBI4XumvRYIFIAPa-3" value="Explorar Lista de Filmes" style="ellipse;whiteSpace=wrap;html=1;" vertex="1" parent="1">
          <mxGeometry x="140" y="240" width="140" height="70" as="geometry" />
        </mxCell>
        <mxCell id="gxYtZBI4XumvRYIFIAPa-4" value="&lt;font style=&quot;font-size: 10px;&quot;&gt;extends&lt;/font&gt;" style="html=1;verticalAlign=bottom;endArrow=open;dashed=1;endSize=8;curved=0;rounded=0;exitX=0.714;exitY=0;exitDx=0;exitDy=0;exitPerimeter=0;entryX=-0.012;entryY=0.327;entryDx=0;entryDy=0;entryPerimeter=0;align=right;" edge="1" parent="1" source="BVIy-EahmFEfsLHSjCyb-12" target="BVIy-EahmFEfsLHSjCyb-7">
          <mxGeometry relative="1" as="geometry">
            <mxPoint x="660" y="129.5" as="sourcePoint" />
            <mxPoint x="690" y="90" as="targetPoint" />
          </mxGeometry>
        </mxCell>
        <mxCell id="gxYtZBI4XumvRYIFIAPa-5" value="extends" style="html=1;verticalAlign=bottom;endArrow=open;dashed=1;endSize=8;curved=0;rounded=0;exitX=1;exitY=0.5;exitDx=0;exitDy=0;entryX=0;entryY=0.5;entryDx=0;entryDy=0;" edge="1" parent="1" source="BVIy-EahmFEfsLHSjCyb-12" target="BVIy-EahmFEfsLHSjCyb-14">
          <mxGeometry relative="1" as="geometry">
            <mxPoint x="650" y="170" as="sourcePoint" />
            <mxPoint x="700" y="180" as="targetPoint" />
          </mxGeometry>
        </mxCell>
        <mxCell id="gxYtZBI4XumvRYIFIAPa-6" value="extends" style="html=1;verticalAlign=bottom;endArrow=open;dashed=1;endSize=8;curved=0;rounded=0;entryX=0;entryY=0.25;entryDx=0;entryDy=0;entryPerimeter=0;exitX=0.923;exitY=0.835;exitDx=0;exitDy=0;exitPerimeter=0;align=left;" edge="1" parent="1" source="BVIy-EahmFEfsLHSjCyb-12" target="BVIy-EahmFEfsLHSjCyb-25">
          <mxGeometry relative="1" as="geometry">
            <mxPoint x="660" y="249.5" as="sourcePoint" />
            <mxPoint x="580" y="249.5" as="targetPoint" />
          </mxGeometry>
        </mxCell>
        <mxCell id="gxYtZBI4XumvRYIFIAPa-8" value="" style="html=1;verticalAlign=bottom;endArrow=block;curved=0;rounded=0;entryX=0;entryY=0.5;entryDx=0;entryDy=0;" edge="1" parent="1" target="gxYtZBI4XumvRYIFIAPa-3">
          <mxGeometry width="80" relative="1" as="geometry">
            <mxPoint x="50" y="285" as="sourcePoint" />
            <mxPoint x="130" y="285" as="targetPoint" />
          </mxGeometry>
        </mxCell>
        <mxCell id="gxYtZBI4XumvRYIFIAPa-10" value="include" style="html=1;verticalAlign=bottom;endArrow=open;dashed=1;endSize=8;curved=0;rounded=0;entryX=0;entryY=0.5;entryDx=0;entryDy=0;" edge="1" parent="1" target="BVIy-EahmFEfsLHSjCyb-6">
          <mxGeometry relative="1" as="geometry">
            <mxPoint x="280" y="275" as="sourcePoint" />
            <mxPoint x="340" y="274.5" as="targetPoint" />
          </mxGeometry>
        </mxCell>
        <mxCell id="gxYtZBI4XumvRYIFIAPa-11" value="include" style="html=1;verticalAlign=bottom;endArrow=open;dashed=1;endSize=8;curved=0;rounded=0;entryX=0.353;entryY=-0.029;entryDx=0;entryDy=0;entryPerimeter=0;exitX=0.769;exitY=0.989;exitDx=0;exitDy=0;exitPerimeter=0;align=left;" edge="1" parent="1" source="gxYtZBI4XumvRYIFIAPa-3" target="BVIy-EahmFEfsLHSjCyb-31">
          <mxGeometry relative="1" as="geometry">
            <mxPoint x="280" y="330" as="sourcePoint" />
            <mxPoint x="200" y="330" as="targetPoint" />
          </mxGeometry>
        </mxCell>
        <mxCell id="gxYtZBI4XumvRYIFIAPa-12" value="&lt;div style=&quot;text-align: justify;&quot;&gt;include&lt;/div&gt;" style="html=1;verticalAlign=bottom;endArrow=open;dashed=1;endSize=8;curved=0;rounded=0;entryX=0.353;entryY=-0.029;entryDx=0;entryDy=0;entryPerimeter=0;exitX=0.403;exitY=1.057;exitDx=0;exitDy=0;exitPerimeter=0;align=right;" edge="1" parent="1" source="gxYtZBI4XumvRYIFIAPa-3">
          <mxGeometry relative="1" as="geometry">
            <mxPoint x="210" y="405" as="sourcePoint" />
            <mxPoint x="254" y="444" as="targetPoint" />
          </mxGeometry>
        </mxCell>
        <mxCell id="gxYtZBI4XumvRYIFIAPa-13" value="" style="endArrow=classic;html=1;rounded=0;entryX=0.3;entryY=0.951;entryDx=0;entryDy=0;entryPerimeter=0;" edge="1" parent="1" target="BVIy-EahmFEfsLHSjCyb-6">
          <mxGeometry width="50" height="50" relative="1" as="geometry">
            <mxPoint x="350" y="355" as="sourcePoint" />
            <mxPoint x="384" y="320" as="targetPoint" />
          </mxGeometry>
        </mxCell>
        <mxCell id="gxYtZBI4XumvRYIFIAPa-14" value="" style="endArrow=classic;html=1;rounded=0;entryX=0.5;entryY=1;entryDx=0;entryDy=0;" edge="1" parent="1" target="BVIy-EahmFEfsLHSjCyb-6">
          <mxGeometry width="50" height="50" relative="1" as="geometry">
            <mxPoint x="370" y="465" as="sourcePoint" />
            <mxPoint x="404" y="430" as="targetPoint" />
          </mxGeometry>
        </mxCell>
      </root>
    </mxGraphModel>
  </diagram>
</mxfile>
